<?xml version="1.0" encoding="UTF-8" standalone="no"?><svg xmlns="http://www.w3.org/2000/svg" xmlns:xlink="http://www.w3.org/1999/xlink" contentScriptType="application/ecmascript" contentStyleType="text/css" height="687px" preserveAspectRatio="none" style="width:647px;height:687px;" version="1.1" viewBox="0 0 647 687" width="647px" zoomAndPan="magnify"><defs><filter height="300%" id="f1od4xezyrvcen" width="300%" x="-1" y="-1"><feGaussianBlur result="blurOut" stdDeviation="2.0"/><feColorMatrix in="blurOut" result="blurOut2" type="matrix" values="0 0 0 0 0 0 0 0 0 0 0 0 0 0 0 0 0 0 .4 0"/><feOffset dx="4.0" dy="4.0" in="blurOut2" result="blurOut3"/><feBlend in="SourceGraphic" in2="blurOut3" mode="normal"/></filter></defs><g><!--MD5=[7552260fd2021a323855cf929da74f79]
cluster modules--><polygon fill="#FFFFFF" filter="url(#f1od4xezyrvcen)" points="16,6.294,81,6.294,88,29.0939,630,29.0939,630,680.294,16,680.294,16,6.294" style="stroke:#000000;stroke-width:1.5;"/><line style="stroke:#000000;stroke-width:1.5;" x1="16" x2="88" y1="29.0939" y2="29.0939"/><text fill="#000000" font-family="sans-serif" font-size="14" font-weight="bold" lengthAdjust="spacing" textLength="59" x="20" y="21.2999">modules</text><!--MD5=[ed26dc8b76537aa077e11fe1c0dbb7a9]
cluster mustache--><polygon fill="#FFFFFF" filter="url(#f1od4xezyrvcen)" points="40,49.294,113,49.294,120,72.0939,606,72.0939,606,656.294,40,656.294,40,49.294" style="stroke:#000000;stroke-width:1.5;"/><line style="stroke:#000000;stroke-width:1.5;" x1="40" x2="120" y1="72.0939" y2="72.0939"/><text fill="#000000" font-family="sans-serif" font-size="14" font-weight="bold" lengthAdjust="spacing" textLength="67" x="44" y="64.2999">mustache</text><!--MD5=[239618e0c1598dae7990fbb261e6587b]
class Mustachizer--><rect codeLine="5" fill="#FEFECE" filter="url(#f1od4xezyrvcen)" height="61.1999" id="Mustachizer" style="stroke:#A80036;stroke-width:1.5;" width="257" x="231.5" y="84.294"/><ellipse cx="322.75" cy="100.294" fill="#ADD1B2" rx="11" ry="11" style="stroke:#A80036;stroke-width:1.0;"/><path d="M317.75,101.4502 C317.75,103.9502 319.8906,105.7627 322.8125,105.7627 C324.0469,105.7627 325.2188,105.4659 325.9688,104.9502 C326.5781,104.5284 326.9063,104.1065 326.9063,103.7002 C326.9063,103.2315 326.4844,102.8252 325.9844,102.8252 C325.75,102.8252 325.5313,102.9034 325.3281,103.1065 C324.8906,103.544 324.8906,103.544 324.7188,103.6377 C324.2656,103.8721 323.625,104.0127 322.8594,104.0127 C320.8594,104.0127 319.5781,102.9971 319.5781,101.419 L319.5781,100.3721 C319.5781,98.669 320.7969,97.4659 322.5,97.4659 C323.0781,97.4659 323.6563,97.6065 324.125,97.8565 C324.5938,98.1221 324.7656,98.3096 324.8281,98.669 C324.9531,99.3409 325.2031,99.5909 325.7344,99.5909 C326.0156,99.5909 326.2969,99.4502 326.4844,99.2315 C326.6094,99.0596 326.6563,98.8877 326.6563,98.4502 L326.6563,97.0909 C326.6563,96.669 326.6406,96.5284 326.5156,96.3565 C326.3438,96.1065 326.0625,95.9502 325.7344,95.9502 C325.4219,95.9502 325.2188,96.0596 325,96.3252 C323.8281,95.8252 323.3906,95.7159 322.4375,95.7159 C319.7656,95.7159 317.75,97.7315 317.75,100.3565 L317.75,101.4502 Z " fill="#000000"/><text fill="#000000" font-family="sans-serif" font-size="12" lengthAdjust="spacing" textLength="66" x="343.25" y="104.242">Mustachizer</text><line style="stroke:#A80036;stroke-width:1.5;" x1="232.5" x2="487.5" y1="116.294" y2="116.294"/><line style="stroke:#A80036;stroke-width:1.5;" x1="232.5" x2="487.5" y1="124.294" y2="124.294"/><text fill="#000000" font-family="sans-serif" font-size="11" lengthAdjust="spacing" textLength="245" x="237.5" y="138.5129">mustachize(image_buffer: io.BytesIO) -&gt; io.ByteIO</text><!--MD5=[af3d4477adf2cd624bf8cf3e5b1265b2]
class MustachePlacer--><rect codeLine="9" fill="#FEFECE" filter="url(#f1od4xezyrvcen)" height="127.1994" id="MustachePlacer" style="stroke:#A80036;stroke-width:1.5;" width="190" x="56" y="339.294"/><ellipse cx="102.75" cy="355.294" fill="#ADD1B2" rx="11" ry="11" style="stroke:#A80036;stroke-width:1.0;"/><path d="M97.75,356.4502 C97.75,358.9502 99.8906,360.7627 102.8125,360.7627 C104.0469,360.7627 105.2188,360.4659 105.9688,359.9502 C106.5781,359.5284 106.9063,359.1065 106.9063,358.7002 C106.9063,358.2315 106.4844,357.8252 105.9844,357.8252 C105.75,357.8252 105.5313,357.9034 105.3281,358.1065 C104.8906,358.544 104.8906,358.544 104.7188,358.6377 C104.2656,358.8721 103.625,359.0127 102.8594,359.0127 C100.8594,359.0127 99.5781,357.9971 99.5781,356.419 L99.5781,355.3721 C99.5781,353.669 100.7969,352.4659 102.5,352.4659 C103.0781,352.4659 103.6563,352.6065 104.125,352.8565 C104.5938,353.1221 104.7656,353.3096 104.8281,353.669 C104.9531,354.3409 105.2031,354.5909 105.7344,354.5909 C106.0156,354.5909 106.2969,354.4502 106.4844,354.2315 C106.6094,354.0596 106.6563,353.8877 106.6563,353.4502 L106.6563,352.0909 C106.6563,351.669 106.6406,351.5284 106.5156,351.3565 C106.3438,351.1065 106.0625,350.9502 105.7344,350.9502 C105.4219,350.9502 105.2188,351.0596 105,351.3252 C103.8281,350.8252 103.3906,350.7159 102.4375,350.7159 C99.7656,350.7159 97.75,352.7315 97.75,355.3565 L97.75,356.4502 Z " fill="#000000"/><text fill="#000000" font-family="sans-serif" font-size="12" lengthAdjust="spacing" textLength="88" x="123.25" y="359.242">MustachePlacer</text><line style="stroke:#A80036;stroke-width:1.5;" x1="57" x2="245" y1="371.294" y2="371.294"/><line style="stroke:#A80036;stroke-width:1.5;" x1="57" x2="245" y1="379.294" y2="379.294"/><text fill="#000000" font-family="sans-serif" font-size="11" lengthAdjust="spacing" textLength="84" x="62" y="393.5129">place_mustache(</text><text fill="#000000" font-family="sans-serif" font-size="11" lengthAdjust="spacing" textLength="114" x="86" y="406.7128">face_image: PIL.Image,</text><text fill="#000000" font-family="sans-serif" font-size="11" lengthAdjust="spacing" textLength="85" x="86" y="419.9127">camera: Camera,</text><text fill="#000000" font-family="sans-serif" font-size="11" lengthAdjust="spacing" textLength="55" x="86" y="433.1126">face: Face,</text><text fill="#000000" font-family="sans-serif" font-size="11" lengthAdjust="spacing" textLength="154" x="86" y="446.3125">mustache_type: MustacheType</text><text fill="#000000" font-family="sans-serif" font-size="11" lengthAdjust="spacing" textLength="4" x="62" y="459.5124">)</text><!--MD5=[9c6dff071e773220c632a7dbc9696c5b]
class Mustache--><rect codeLine="13" fill="#FEFECE" filter="url(#f1od4xezyrvcen)" height="100.7996" id="Mustache" style="stroke:#A80036;stroke-width:1.5;" width="113" x="275.5" y="532.794"/><ellipse cx="303.1" cy="548.794" fill="#ADD1B2" rx="11" ry="11" style="stroke:#A80036;stroke-width:1.0;"/><path d="M298.1,549.9502 C298.1,552.4502 300.2406,554.2627 303.1625,554.2627 C304.3969,554.2627 305.5688,553.9659 306.3188,553.4502 C306.9281,553.0284 307.2563,552.6065 307.2563,552.2002 C307.2563,551.7315 306.8344,551.3252 306.3344,551.3252 C306.1,551.3252 305.8813,551.4034 305.6781,551.6065 C305.2406,552.044 305.2406,552.044 305.0688,552.1377 C304.6156,552.3721 303.975,552.5127 303.2094,552.5127 C301.2094,552.5127 299.9281,551.4971 299.9281,549.919 L299.9281,548.8721 C299.9281,547.169 301.1469,545.9659 302.85,545.9659 C303.4281,545.9659 304.0063,546.1065 304.475,546.3565 C304.9438,546.6221 305.1156,546.8096 305.1781,547.169 C305.3031,547.8409 305.5531,548.0909 306.0844,548.0909 C306.3656,548.0909 306.6469,547.9502 306.8344,547.7315 C306.9594,547.5596 307.0063,547.3877 307.0063,546.9502 L307.0063,545.5909 C307.0063,545.169 306.9906,545.0284 306.8656,544.8565 C306.6938,544.6065 306.4125,544.4502 306.0844,544.4502 C305.7719,544.4502 305.5688,544.5596 305.35,544.8252 C304.1781,544.3252 303.7406,544.2159 302.7875,544.2159 C300.1156,544.2159 298.1,546.2315 298.1,548.8565 L298.1,549.9502 Z " fill="#000000"/><text fill="#000000" font-family="sans-serif" font-size="12" lengthAdjust="spacing" textLength="53" x="319.9" y="552.742">Mustache</text><line style="stroke:#A80036;stroke-width:1.5;" x1="276.5" x2="387.5" y1="564.794" y2="564.794"/><text fill="#000000" font-family="sans-serif" font-size="11" lengthAdjust="spacing" textLength="101" x="281.5" y="579.0129">FACE_WIDTH = 500</text><text fill="#000000" font-family="sans-serif" font-size="11" lengthAdjust="spacing" textLength="84" x="281.5" y="592.2128">image: PIL.Image</text><text fill="#000000" font-family="sans-serif" font-size="11" lengthAdjust="spacing" textLength="51" x="281.5" y="605.4127">width: float</text><text fill="#000000" font-family="sans-serif" font-size="11" lengthAdjust="spacing" textLength="55" x="281.5" y="618.6126">height: float</text><line style="stroke:#A80036;stroke-width:1.5;" x1="276.5" x2="387.5" y1="625.5936" y2="625.5936"/><!--MD5=[c7c5e96856a8687f54a8b5779d2129cd]
class MustacheType--><rect codeLine="20" fill="#FEFECE" filter="url(#f1od4xezyrvcen)" height="61.1999" id="MustacheType" style="stroke:#A80036;stroke-width:1.5;" width="183" x="57.5" y="552.794"/><ellipse cx="104.75" cy="568.794" fill="#EB937F" rx="11" ry="11" style="stroke:#A80036;stroke-width:1.0;"/><path d="M103.6094,569.8565 L104.9219,569.8565 L104.9219,569.9034 C104.9219,570.3096 104.9375,570.4659 105.0469,570.6221 C105.2188,570.8721 105.5156,571.044 105.8281,571.044 C106.1094,571.044 106.4063,570.9034 106.5781,570.6846 C106.7031,570.4971 106.75,570.3565 106.75,569.9034 L106.75,568.0596 C106.75,567.7315 106.7344,567.6221 106.6719,567.4502 C106.5625,567.1534 106.2031,566.9034 105.8281,566.9034 C105.5313,566.9034 105.2656,567.044 105.0938,567.2627 C104.9531,567.4502 104.9219,567.6221 104.9219,568.0596 L104.9219,568.1221 L103.6094,568.1221 L103.6094,565.9502 L107.4531,565.9502 L107.4531,566.7002 C107.4531,567.0909 107.4844,567.2784 107.5938,567.4346 C107.7656,567.6846 108.0625,567.8565 108.375,567.8565 C108.6719,567.8565 108.9375,567.7315 109.125,567.4971 C109.2656,567.3096 109.2969,567.169 109.2969,566.7002 L109.2969,564.2002 L101.5938,564.2002 C101.1406,564.2002 101.0156,564.2159 100.8438,564.3252 C100.5781,564.4971 100.4063,564.7627 100.4063,565.0752 C100.4063,565.3565 100.5313,565.6221 100.7813,565.794 C100.9688,565.919 101.1563,565.9502 101.5938,565.9502 L101.7813,565.9502 L101.7813,572.044 L101.5938,572.044 C101.1719,572.044 101.0156,572.0752 100.8438,572.169 C100.5781,572.3252 100.4063,572.6065 100.4063,572.9034 C100.4063,573.4815 100.8125,573.794 101.5938,573.794 L109.6719,573.794 L109.6719,571.2627 C109.6719,570.8565 109.6406,570.6846 109.5313,570.5284 C109.3594,570.2627 109.0781,570.1065 108.75,570.1065 C108.4688,570.1065 108.1875,570.2471 108,570.4659 C107.8594,570.6534 107.8281,570.8096 107.8281,571.2627 L107.8281,572.044 L103.6094,572.044 L103.6094,569.8565 Z " fill="#000000"/><text fill="#000000" font-family="sans-serif" font-size="12" lengthAdjust="spacing" textLength="80" x="125.25" y="572.742">MustacheType</text><line style="stroke:#A80036;stroke-width:1.5;" x1="58.5" x2="239.5" y1="584.794" y2="584.794"/><text fill="#000000" font-family="sans-serif" font-size="11" lengthAdjust="spacing" textLength="171" x="63.5" y="599.0129">DEFAULT = "./img/moustache.png"</text><line style="stroke:#A80036;stroke-width:1.5;" x1="58.5" x2="239.5" y1="605.9939" y2="605.9939"/><!--MD5=[94a1258517eec58c86dfc7711c232f48]
class FaceFinder--><rect codeLine="24" fill="#FEFECE" filter="url(#f1od4xezyrvcen)" height="100.7996" id="FaceFinder" style="stroke:#A80036;stroke-width:1.5;" width="118" x="472" y="352.294"/><ellipse cx="497.8" cy="368.294" fill="#ADD1B2" rx="11" ry="11" style="stroke:#A80036;stroke-width:1.0;"/><path d="M492.8,369.4502 C492.8,371.9502 494.9406,373.7627 497.8625,373.7627 C499.0969,373.7627 500.2688,373.4659 501.0188,372.9502 C501.6281,372.5284 501.9563,372.1065 501.9563,371.7002 C501.9563,371.2315 501.5344,370.8252 501.0344,370.8252 C500.8,370.8252 500.5813,370.9034 500.3781,371.1065 C499.9406,371.544 499.9406,371.544 499.7688,371.6377 C499.3156,371.8721 498.675,372.0127 497.9094,372.0127 C495.9094,372.0127 494.6281,370.9971 494.6281,369.419 L494.6281,368.3721 C494.6281,366.669 495.8469,365.4659 497.55,365.4659 C498.1281,365.4659 498.7063,365.6065 499.175,365.8565 C499.6438,366.1221 499.8156,366.3096 499.8781,366.669 C500.0031,367.3409 500.2531,367.5909 500.7844,367.5909 C501.0656,367.5909 501.3469,367.4502 501.5344,367.2315 C501.6594,367.0596 501.7063,366.8877 501.7063,366.4502 L501.7063,365.0909 C501.7063,364.669 501.6906,364.5284 501.5656,364.3565 C501.3938,364.1065 501.1125,363.9502 500.7844,363.9502 C500.4719,363.9502 500.2688,364.0596 500.05,364.3252 C498.8781,363.8252 498.4406,363.7159 497.4875,363.7159 C494.8156,363.7159 492.8,365.7315 492.8,368.3565 L492.8,369.4502 Z " fill="#000000"/><text fill="#000000" font-family="sans-serif" font-size="12" lengthAdjust="spacing" textLength="62" x="514.2" y="372.242">FaceFinder</text><line style="stroke:#A80036;stroke-width:1.5;" x1="473" x2="589" y1="384.294" y2="384.294"/><line style="stroke:#A80036;stroke-width:1.5;" x1="473" x2="589" y1="392.294" y2="392.294"/><text fill="#000000" font-family="sans-serif" font-size="11" lengthAdjust="spacing" textLength="54" x="478" y="406.5129">find_faces(</text><text fill="#000000" font-family="sans-serif" font-size="11" lengthAdjust="spacing" textLength="68" x="502" y="419.7128">image: Image,</text><text fill="#000000" font-family="sans-serif" font-size="11" lengthAdjust="spacing" textLength="82" x="502" y="432.9127">camera: Camera</text><text fill="#000000" font-family="sans-serif" font-size="11" lengthAdjust="spacing" textLength="66" x="478" y="446.1126">) -&gt; list(Face)</text><!--MD5=[ec540376402a3db728bf4acda2a071ac]
class Face--><rect codeLine="28" fill="#FEFECE" filter="url(#f1od4xezyrvcen)" height="113.9995" id="Face" style="stroke:#A80036;stroke-width:1.5;" width="150" x="432" y="526.294"/><ellipse cx="489.25" cy="542.294" fill="#ADD1B2" rx="11" ry="11" style="stroke:#A80036;stroke-width:1.0;"/><path d="M484.25,543.4502 C484.25,545.9502 486.3906,547.7627 489.3125,547.7627 C490.5469,547.7627 491.7188,547.4659 492.4688,546.9502 C493.0781,546.5284 493.4063,546.1065 493.4063,545.7002 C493.4063,545.2315 492.9844,544.8252 492.4844,544.8252 C492.25,544.8252 492.0313,544.9034 491.8281,545.1065 C491.3906,545.544 491.3906,545.544 491.2188,545.6377 C490.7656,545.8721 490.125,546.0127 489.3594,546.0127 C487.3594,546.0127 486.0781,544.9971 486.0781,543.419 L486.0781,542.3721 C486.0781,540.669 487.2969,539.4659 489,539.4659 C489.5781,539.4659 490.1563,539.6065 490.625,539.8565 C491.0938,540.1221 491.2656,540.3096 491.3281,540.669 C491.4531,541.3409 491.7031,541.5909 492.2344,541.5909 C492.5156,541.5909 492.7969,541.4502 492.9844,541.2315 C493.1094,541.0596 493.1563,540.8877 493.1563,540.4502 L493.1563,539.0909 C493.1563,538.669 493.1406,538.5284 493.0156,538.3565 C492.8438,538.1065 492.5625,537.9502 492.2344,537.9502 C491.9219,537.9502 491.7188,538.0596 491.5,538.3252 C490.3281,537.8252 489.8906,537.7159 488.9375,537.7159 C486.2656,537.7159 484.25,539.7315 484.25,542.3565 L484.25,543.4502 Z " fill="#000000"/><text fill="#000000" font-family="sans-serif" font-size="12" lengthAdjust="spacing" textLength="27" x="509.75" y="546.242">Face</text><line style="stroke:#A80036;stroke-width:1.5;" x1="433" x2="581" y1="558.294" y2="558.294"/><text fill="#000000" font-family="sans-serif" font-size="11" lengthAdjust="spacing" textLength="23" x="438" y="572.5129">x: int</text><text fill="#000000" font-family="sans-serif" font-size="11" lengthAdjust="spacing" textLength="23" x="438" y="585.7128">y: int</text><text fill="#000000" font-family="sans-serif" font-size="11" lengthAdjust="spacing" textLength="42" x="438" y="598.9127">width: int</text><text fill="#000000" font-family="sans-serif" font-size="11" lengthAdjust="spacing" textLength="46" x="438" y="612.1126">height: int</text><text fill="#000000" font-family="sans-serif" font-size="11" lengthAdjust="spacing" textLength="138" x="438" y="625.3125">rotation: numpy.array((3, 1))</text><line style="stroke:#A80036;stroke-width:1.5;" x1="433" x2="581" y1="632.2935" y2="632.2935"/><!--MD5=[452be1aaf8b94e2bc4204d466ef769a4]
class Camera--><rect codeLine="36" fill="#FEFECE" filter="url(#f1od4xezyrvcen)" height="74.3998" id="Camera" style="stroke:#A80036;stroke-width:1.5;" width="158" x="281" y="205.294"/><ellipse cx="333.75" cy="221.294" fill="#ADD1B2" rx="11" ry="11" style="stroke:#A80036;stroke-width:1.0;"/><path d="M328.75,222.4502 C328.75,224.9502 330.8906,226.7627 333.8125,226.7627 C335.0469,226.7627 336.2188,226.4659 336.9688,225.9502 C337.5781,225.5284 337.9063,225.1065 337.9063,224.7002 C337.9063,224.2315 337.4844,223.8252 336.9844,223.8252 C336.75,223.8252 336.5313,223.9034 336.3281,224.1065 C335.8906,224.544 335.8906,224.544 335.7188,224.6377 C335.2656,224.8721 334.625,225.0127 333.8594,225.0127 C331.8594,225.0127 330.5781,223.9971 330.5781,222.419 L330.5781,221.3721 C330.5781,219.669 331.7969,218.4659 333.5,218.4659 C334.0781,218.4659 334.6563,218.6065 335.125,218.8565 C335.5938,219.1221 335.7656,219.3096 335.8281,219.669 C335.9531,220.3409 336.2031,220.5909 336.7344,220.5909 C337.0156,220.5909 337.2969,220.4502 337.4844,220.2315 C337.6094,220.0596 337.6563,219.8877 337.6563,219.4502 L337.6563,218.0909 C337.6563,217.669 337.6406,217.5284 337.5156,217.3565 C337.3438,217.1065 337.0625,216.9502 336.7344,216.9502 C336.4219,216.9502 336.2188,217.0596 336,217.3252 C334.8281,216.8252 334.3906,216.7159 333.4375,216.7159 C330.7656,216.7159 328.75,218.7315 328.75,221.3565 L328.75,222.4502 Z " fill="#000000"/><text fill="#000000" font-family="sans-serif" font-size="12" lengthAdjust="spacing" textLength="44" x="354.25" y="225.242">Camera</text><line style="stroke:#A80036;stroke-width:1.5;" x1="282" x2="438" y1="237.294" y2="237.294"/><text fill="#000000" font-family="sans-serif" font-size="11" lengthAdjust="spacing" textLength="132" x="287" y="251.5129">matrix: numpy.array((3, 3))</text><text fill="#000000" font-family="sans-serif" font-size="11" lengthAdjust="spacing" textLength="146" x="287" y="264.7128">distortion: numpy.array((4, 1))</text><line style="stroke:#A80036;stroke-width:1.5;" x1="282" x2="438" y1="271.6938" y2="271.6938"/><!--MD5=[77a1f0f381a5cf012b92101ce67df665]
class DebugDrawer--><rect codeLine="41" fill="#FEFECE" filter="url(#f1od4xezyrvcen)" height="74.3998" id="DebugDrawer" style="stroke:#A80036;stroke-width:1.5;" width="156" x="281" y="365.794"/><ellipse cx="317.15" cy="381.794" fill="#ADD1B2" rx="11" ry="11" style="stroke:#A80036;stroke-width:1.0;"/><path d="M312.15,382.9502 C312.15,385.4502 314.2906,387.2627 317.2125,387.2627 C318.4469,387.2627 319.6188,386.9659 320.3688,386.4502 C320.9781,386.0284 321.3063,385.6065 321.3063,385.2002 C321.3063,384.7315 320.8844,384.3252 320.3844,384.3252 C320.15,384.3252 319.9313,384.4034 319.7281,384.6065 C319.2906,385.044 319.2906,385.044 319.1188,385.1377 C318.6656,385.3721 318.025,385.5127 317.2594,385.5127 C315.2594,385.5127 313.9781,384.4971 313.9781,382.919 L313.9781,381.8721 C313.9781,380.169 315.1969,378.9659 316.9,378.9659 C317.4781,378.9659 318.0563,379.1065 318.525,379.3565 C318.9938,379.6221 319.1656,379.8096 319.2281,380.169 C319.3531,380.8409 319.6031,381.0909 320.1344,381.0909 C320.4156,381.0909 320.6969,380.9502 320.8844,380.7315 C321.0094,380.5596 321.0563,380.3877 321.0563,379.9502 L321.0563,378.5909 C321.0563,378.169 321.0406,378.0284 320.9156,377.8565 C320.7438,377.6065 320.4625,377.4502 320.1344,377.4502 C319.8219,377.4502 319.6188,377.5596 319.4,377.8252 C318.2281,377.3252 317.7906,377.2159 316.8375,377.2159 C314.1656,377.2159 312.15,379.2315 312.15,381.8565 L312.15,382.9502 Z " fill="#000000"/><text fill="#000000" font-family="sans-serif" font-size="12" lengthAdjust="spacing" textLength="77" x="335.85" y="385.742">DebugDrawer</text><line style="stroke:#A80036;stroke-width:1.5;" x1="282" x2="436" y1="397.794" y2="397.794"/><text fill="#000000" font-family="sans-serif" font-size="11" lengthAdjust="spacing" textLength="144" x="287" y="412.0129">drawer: PIL.ImageDraw.Draw</text><line style="stroke:#A80036;stroke-width:1.5;" x1="282" x2="436" y1="418.9939" y2="418.9939"/><text fill="#000000" font-family="sans-serif" font-size="11" lengthAdjust="spacing" textLength="112" x="287" y="433.2128">load(image: PIL.Image)</text><!--MD5=[a92e8719a4fb3049ba4e8637173796b4]
link Mustachizer to MustachePlacer--><path codeLine="46" d="M323.3,145.394 C304.27,161.824 281.43,183.344 264,205.294 C232.37,245.124 203.87,294.824 183.41,334.274 " fill="none" id="Mustachizer-to-MustachePlacer" style="stroke:#A80036;stroke-width:1.0;"/><polygon fill="#A80036" points="180.96,339.034,188.6498,332.8804,183.2587,334.5937,181.5454,329.2025,180.96,339.034" style="stroke:#A80036;stroke-width:1.0;"/><!--MD5=[5cffbd3378a09a9b8a83c06f675a2361]
link Mustachizer to Camera--><path codeLine="47" d="M360,145.534 C360,161.694 360,181.934 360,199.644 " fill="none" id="Mustachizer-to-Camera" style="stroke:#A80036;stroke-width:1.0;"/><polygon fill="#A80036" points="360,205.054,364,196.054,360,200.054,356,196.054,360,205.054" style="stroke:#A80036;stroke-width:1.0;"/><!--MD5=[0ea85772f9b06337ca85a44a587a1b79]
link Mustachizer to FaceFinder--><path codeLine="48" d="M400.03,145.424 C419.36,161.404 441.64,182.494 457,205.294 C486.36,248.874 506.12,305.674 517.78,346.994 " fill="none" id="Mustachizer-to-FaceFinder" style="stroke:#A80036;stroke-width:1.0;"/><polygon fill="#A80036" points="519.16,351.954,520.5948,342.2102,517.8166,347.1378,512.889,344.3596,519.16,351.954" style="stroke:#A80036;stroke-width:1.0;"/><!--MD5=[3bb1a0ebc209a21fd5f52152f26c156f]
link MustachePlacer to Mustache--><path codeLine="50" d="M214.56,466.474 C235.19,486.814 257.87,509.184 277.75,528.794 " fill="none" id="MustachePlacer-to-Mustache" style="stroke:#A80036;stroke-width:1.0;"/><polygon fill="#A80036" points="281.69,532.684,278.0988,523.5132,278.1331,529.1699,272.4764,529.2042,281.69,532.684" style="stroke:#A80036;stroke-width:1.0;"/><!--MD5=[aa66978bf39c3c4a13e1cc7d905c3405]
link MustachePlacer to MustacheType--><path codeLine="51" d="M150.3,466.474 C149.99,493.744 149.65,524.654 149.39,547.684 " fill="none" id="MustachePlacer-to-MustacheType" style="stroke:#A80036;stroke-width:1.0;"/><polygon fill="#A80036" points="149.33,552.764,153.4326,543.8103,149.3871,547.7643,145.4331,543.7189,149.33,552.764" style="stroke:#A80036;stroke-width:1.0;"/><!--MD5=[62bb03b8cd1b3ce17678fd7fe38b8d9a]
link MustachePlacer to DebugDrawer--><path codeLine="52" d="M246.06,402.794 C255.96,402.794 265.85,402.794 275.74,402.794 " fill="none" id="MustachePlacer-to-DebugDrawer" style="stroke:#A80036;stroke-width:1.0;"/><polygon fill="#A80036" points="280.91,402.794,271.91,398.794,275.91,402.794,271.91,406.794,280.91,402.794" style="stroke:#A80036;stroke-width:1.0;"/><!--MD5=[9fb27c3ab05cd8b7354c7a8f7d0a8ad8]
link MustachePlacer to Face--><path codeLine="53" d="M246.19,457.364 C252.18,460.454 258.15,463.454 264,466.294 C325.62,496.254 344.4,496.304 406,526.294 C413.02,529.714 420.23,533.384 427.43,537.154 " fill="none" id="MustachePlacer-to-Face" style="stroke:#A80036;stroke-width:1.0;"/><polygon fill="#A80036" points="431.9,539.514,425.8059,531.7769,427.4776,537.1811,422.0734,538.8528,431.9,539.514" style="stroke:#A80036;stroke-width:1.0;"/><!--MD5=[e16a17000e9d4750783d2cd4b1f4e29c]
reverse link Camera to MustachePlacer--><path codeLine="54" d="M308.17,282.604 C285.71,299.634 258.85,320.004 233.75,339.034 " fill="none" id="Camera-backto-MustachePlacer" style="stroke:#A80036;stroke-width:1.0;"/><polygon fill="#A80036" points="312.31,279.454,302.724,281.7142,308.3289,282.479,307.5641,288.084,312.31,279.454" style="stroke:#A80036;stroke-width:1.0;"/><!--MD5=[ab20ba5228358d457d31aa1221c62e57]
link FaceFinder to Face--><path codeLine="56" d="M524.31,453.514 C521.49,474.524 518.17,499.184 515.2,521.274 " fill="none" id="FaceFinder-to-Face" style="stroke:#A80036;stroke-width:1.0;"/><polygon fill="#A80036" points="514.54,526.234,519.688,517.8377,515.1971,521.2773,511.7574,516.7864,514.54,526.234" style="stroke:#A80036;stroke-width:1.0;"/><!--MD5=[ac11d082a6565f7f596853c7a45fe9d9]
reverse link DebugDrawer to FaceFinder--><path codeLine="57" d="M442.38,402.794 C452.15,402.794 461.92,402.794 471.69,402.794 " fill="none" id="DebugDrawer-backto-FaceFinder" style="stroke:#A80036;stroke-width:1.0;"/><polygon fill="#A80036" points="437.27,402.794,446.27,406.794,442.27,402.794,446.27,398.794,437.27,402.794" style="stroke:#A80036;stroke-width:1.0;"/><!--MD5=[b62de3abb3dba2d066424ab403e6e8d3]
reverse link Camera to FaceFinder--><path codeLine="58" d="M403.09,283.234 C425.63,304.134 453.45,329.914 477.37,352.084 " fill="none" id="Camera-backto-FaceFinder" style="stroke:#A80036;stroke-width:1.0;"/><polygon fill="#A80036" points="399.23,279.654,403.1155,288.704,402.8985,283.0513,408.5512,282.8343,399.23,279.654" style="stroke:#A80036;stroke-width:1.0;"/><!--MD5=[84933d5c90a5830aecb86c21a17c751d]
@startuml

package modules {

    package mustache {
        class Mustachizer {
            mustachize(image_buffer: io.BytesIO) -> io.ByteIO
        }

        class MustachePlacer {
            place_mustache(\n\tface_image: PIL.Image,\n\tcamera: Camera,\n\tface: Face,\n\tmustache_type: MustacheType\n)
        }

        class Mustache {
            FACE_WIDTH = 500
            image: PIL.Image
            width: float
            height: float
        }

        enum MustacheType {
            DEFAULT = "./img/moustache.png"
        }

        class FaceFinder {
            find_faces(\n\timage: Image,\n\tcamera: Camera\n) -> list(Face)
        }

        class Face {
            x: int
            y: int
            width: int
            height: int
            {field}rotation: numpy.array((3, 1))
        }

        class Camera {
            {field}matrix: numpy.array((3, 3))
            {field}distortion: numpy.array((4, 1))
        }

        class DebugDrawer {
            load(image: PIL.Image)
            drawer: PIL.ImageDraw.Draw
        }

        Mustachizer - -> MustachePlacer
        Mustachizer - -> Camera
        Mustachizer - -> FaceFinder

        MustachePlacer - -> Mustache
        MustachePlacer - -> MustacheType
        MustachePlacer -> DebugDrawer
        MustachePlacer - -> Face
        Camera <- - MustachePlacer

        FaceFinder - -> Face
        DebugDrawer <- FaceFinder
        Camera <- - FaceFinder
    }

}

@enduml

PlantUML version 1.2021.00(Sun Jan 10 11:25:05 CET 2021)
(MIT source distribution)
Java Runtime: OpenJDK Runtime Environment
JVM: OpenJDK 64-Bit Server VM
Default Encoding: UTF-8
Language: fr
Country: FR
--></g></svg>